<?xml version="1.0" encoding="iso-8859-1"?>
<!-- Generator: Adobe Illustrator 19.0.0, SVG Export Plug-In . SVG Version: 6.00 Build 0)  -->
<svg version="1.1" id="Layer_1" xmlns="http://www.w3.org/2000/svg" xmlns:xlink="http://www.w3.org/1999/xlink" x="0px" y="0px"
	 viewBox="0 0 512.276 512.276" style="enable-background:new 0 0 512.276 512.276;" xml:space="preserve">
<g transform="translate(1 1)">
	<g>
		<path style="fill:#FFE100;" d="M28.867,187.633c0,0-18.773,98.133-21.333,107.52c0,0,442.88,33.28,484.693-16.213
			c0,0,17.92-41.813-107.52-37.547L201.24,155.206C201.24,155.206,140.653,252.486,28.867,187.633"/>
		<path style="fill:#FFE100;" d="M492.227,268.7L492.227,268.7c1.707,5.973,0,11.093,0,11.093
			c-41.813,49.493-484.693,15.36-484.693,15.36v59.733c0,0,204.8,0,338.773,0c81.067,0,122.88-16.213,144.213-30.72
			c11.093-8.533,14.507-23.04,10.24-35.84L492.227,268.7z"/>
	</g>
	<g>
		<path style="fill:#FFFFFF;" d="M24.6,295.153c2.56-7.68,15.36-75.947,19.627-99.84c-4.267-1.707-9.387-4.267-15.36-7.68
			c0,0-18.773,98.133-21.333,107.52H24.6z"/>
		<path style="fill:#FFFFFF;" d="M24.6,296.86c-11.093-0.853-17.067-1.707-17.067-1.707v59.733H24.6V296.86z"/>
	</g>
	<path style="fill:#E4667F;" d="M374.467,304.54c58.88-3.413,105.813-10.24,117.76-24.747c0,0,17.92-41.813-107.52-37.547
		L374.467,304.54L374.467,304.54z"/>
	<path style="fill:#FFA800;" d="M348.867,354.886c81.067,0,122.88-16.213,144.213-30.72c11.093-8.533,14.507-23.04,10.24-35.84
		l-8.533-19.627l0,0c1.707,5.973,0,11.093,0,11.093c-3.413,4.267-9.387,7.68-17.067,10.24c4.267,12.8,0.853,26.453-10.24,34.133
		c-20.48,14.507-63.147,30.72-144.213,30.72H348.867z"/>
	<path style="fill:#DD3859;" d="M389.827,241.393c93.867,2.56,78.507,37.547,78.507,37.547c-10.24,11.947-45.227,19.627-92.16,23.04
		v0.853v0.853c58.88-3.413,105.813-10.24,117.76-24.747C494.787,278.94,511.853,237.98,389.827,241.393"/>
	<path style="fill:#FDCC00;" d="M353.987,245.66l6.827-15.36L201.24,155.206c0,0-25.6,40.107-73.387,51.2l154.453,66.56
		C310.467,285.766,342.04,272.966,353.987,245.66"/>
	<path d="M58.733,226.886c5.12,0,8.533,3.413,8.533,8.533c0,5.12-3.413,8.533-8.533,8.533S50.2,240.54,50.2,235.42
		C50.2,230.3,54.467,226.886,58.733,226.886"/>
	<path d="M50.2,261.02c5.12,0,8.533,3.413,8.533,8.533c0,5.12-3.413,8.533-8.533,8.533s-8.533-3.413-8.533-8.533
		C41.667,264.433,45.933,261.02,50.2,261.02"/>
	<path d="M286.573,314.78c-131.413,0-278.187-11.093-279.893-11.093c-2.56,0-5.12-1.707-6.827-3.413c-0.853-2.56-0.853-5.12,0-7.68
		c2.56-6.827,14.507-69.12,21.333-106.667c0.853-2.56,2.56-5.12,5.12-5.973s5.12-0.853,7.68,0
		c23.893,14.507,46.933,21.333,69.12,21.333c58.027,0,90.453-50.347,91.307-50.347c2.56-3.413,6.827-5.12,11.093-3.413
		l180.907,85.333c5.12,0,10.24,0,14.507,0c52.053,0,84.48,8.533,95.573,26.453c7.68,11.947,3.413,22.187,3.413,23.04
		s-0.853,1.707-1.707,2.56C487.96,297.713,453.827,314.78,286.573,314.78z M18.627,287.473c34.987,2.56,157.013,10.24,267.947,10.24
		c153.6,0,189.44-15.36,197.973-23.04c0-1.707,0-3.413-1.707-6.827c-4.267-5.973-19.627-18.773-81.067-18.773
		c-5.12,0-10.24,0-16.213,0c-1.707,0-2.56,0-4.267-0.853l-176.64-81.92c-11.947,14.507-46.08,52.053-101.547,52.053
		c-22.187,0-44.373-5.973-67.413-17.92C31.427,222.62,22.893,266.993,18.627,287.473z"/>
	<path d="M7.533,363.42c-2.56,0-4.267-0.853-5.973-2.56S-1,357.446-1,354.886v-59.733c0-2.56,0.853-4.267,2.56-5.973
		s4.267-2.56,6.827-2.56c1.707,0,147.627,11.093,278.187,11.093c152.747,0,189.44-15.36,197.973-23.04c0-0.853,0-2.56-0.853-3.413
		c-0.853-2.56-0.853-5.12,0.853-7.68c1.707-2.56,4.267-3.413,6.827-3.413c3.413,0,6.827,1.707,8.533,5.12l8.533,19.627
		c6.827,17.067,0.853,35.84-12.8,46.08c-20.48,14.507-63.147,32.427-148.48,32.427C212.333,363.42,7.533,363.42,7.533,363.42z
		 M16.067,304.54v41.813c40.107,0,212.48,0,330.24,0c85.333,0,123.733-18.773,139.093-29.013c7.68-5.12,10.24-16.213,6.827-25.6
		v-0.853c-17.067,11.947-62.293,24.747-205.653,24.747C173.933,314.78,50.2,307.1,16.067,304.54z"/>
	<path d="M374.467,313.073c-2.56,0-4.267-0.853-5.973-2.56s-2.56-4.267-2.56-5.973v-0.853c0-0.853,0-0.853,0-1.707l10.24-62.293
		c0.853-4.267,4.267-6.827,8.533-6.827c5.973,0,11.093,0,17.067,0c52.053,0,84.48,8.533,95.573,26.453
		c7.68,11.947,3.413,22.187,3.413,23.04s-0.853,1.707-1.707,2.56C490.52,294.3,469.187,307.953,374.467,313.073
		C375.32,313.073,374.467,313.073,374.467,313.073z M391.533,249.926l-6.827,45.227c70.827-4.267,93.013-14.507,99.84-20.48
		c0-1.707,0-3.413-1.707-6.827C478.573,262.726,460.653,248.22,391.533,249.926z"/>
	<path d="M212.333,209.82c-1.707,0-3.413,0-4.267-0.853c-4.267-2.56-5.12-7.68-2.56-11.947l25.6-42.667
		c2.56-4.267,7.68-5.12,11.947-2.56c3.413,1.707,5.12,6.827,2.56,11.093l-25.6,42.667
		C218.307,208.113,215.747,209.82,212.333,209.82z"/>
	<path d="M246.467,226.886c-1.707,0-3.413,0-4.267-0.853c-4.267-2.56-5.12-7.68-2.56-11.947l25.6-42.667
		c2.56-4.267,7.68-5.12,11.947-2.56c3.413,1.707,5.12,6.827,2.56,11.093l-25.6,42.667C252.44,225.18,249.88,226.886,246.467,226.886
		z"/>
	<path d="M280.6,243.953c-1.707,0-3.413,0-4.267-0.853c-4.267-2.56-5.12-7.68-2.56-11.947l25.6-42.667
		c2.56-4.267,7.68-5.12,11.947-2.56c3.413,1.707,5.12,6.827,2.56,11.093l-25.6,42.667
		C286.573,242.246,284.013,243.953,280.6,243.953z"/>
	<path d="M314.733,261.02c-1.707,0-3.413,0-4.267-0.853c-4.267-2.56-5.12-7.68-2.56-11.947l25.6-42.667
		c2.56-4.267,7.68-5.12,11.947-2.56c3.413,1.707,5.12,6.827,2.56,11.093l-25.6,42.667
		C320.707,259.313,318.147,261.02,314.733,261.02z"/>
	<path d="M28.867,196.166c-0.853,0-0.853,0-1.707,0C10.947,192.753-1,179.953-1,163.74c0-5.12,3.413-8.533,8.533-8.533
		s8.533,3.413,8.533,8.533c0,9.387,7.68,14.507,14.507,15.36c4.267,0.853,7.68,5.12,6.827,10.24
		C36.547,192.753,33.133,196.166,28.867,196.166z"/>
	<path d="M304.493,286.62L304.493,286.62c-8.533,0-17.067-1.707-24.747-5.12l-154.453-66.56c-3.413-1.707-5.12-5.12-5.12-8.533
		c0-3.413,2.56-6.827,6.827-7.68c43.52-10.24,67.413-47.787,67.413-47.787c2.56-3.413,6.827-5.12,11.093-3.413l158.72,75.093
		c4.267,1.707,5.973,6.827,4.267,11.093l-6.827,15.36C351.427,272.113,329.24,286.62,304.493,286.62z M151.747,207.26
		l133.973,58.027c5.973,2.56,11.947,3.413,17.92,3.413c17.92,0,34.133-11.093,41.813-27.307l3.413-7.68L203.8,165.446
		C196.973,175.686,179.053,195.313,151.747,207.26z"/>
</g>
<g>
</g>
<g>
</g>
<g>
</g>
<g>
</g>
<g>
</g>
<g>
</g>
<g>
</g>
<g>
</g>
<g>
</g>
<g>
</g>
<g>
</g>
<g>
</g>
<g>
</g>
<g>
</g>
<g>
</g>
</svg>
